<?xml version="1.0" encoding="UTF-8" standalone="no"?>
<!DOCTYPE svg PUBLIC "-//W3C//DTD SVG 1.1//EN"
 "http://www.w3.org/Graphics/SVG/1.1/DTD/svg11.dtd">
<!-- Generated by graphviz version 2.44.0 (20200408.0750)
 -->
<!-- Title: org&#45;roam Pages: 1 -->
<svg width="523pt" height="260pt"
 viewBox="0.00 0.00 523.00 260.00" xmlns="http://www.w3.org/2000/svg" xmlns:xlink="http://www.w3.org/1999/xlink">
<g id="graph0" class="graph" transform="scale(1 1) rotate(0) translate(4 256)">
<title>org&#45;roam</title>
<polygon fill="white" stroke="transparent" points="-4,4 -4,-256 519,-256 519,4 -4,4"/>
<!-- /Users/olav/roam/20200603022054&#45;graph.org -->
<g id="node1" class="node">
<title>/Users/olav/roam/20200603022054&#45;graph.org</title>
<g id="a_node1"><a xlink:href="org-protocol://roam-file?file=%2FUsers%2Folav%2Froam%2F20200603022054-graph.org" xlink:title="graph">
<polygon fill="#eeeeee" stroke="transparent" points="270,-252 216,-252 216,-216 270,-216 270,-252"/>
<polyline fill="none" stroke="#c9c9c9" points="216,-216 270,-216 "/>
<text text-anchor="middle" x="243" y="-230.3" font-family="Times,serif" font-size="14.00" fill="#111111">graph</text>
</a>
</g>
</g>
<!-- /Users/olav/roam/20200603023024&#45;depth_first_search.org -->
<g id="node3" class="node">
<title>/Users/olav/roam/20200603023024&#45;depth_first_search.org</title>
<g id="a_node3"><a xlink:href="org-protocol://roam-file?file=%2FUsers%2Folav%2Froam%2F20200603023024-depth_first_search.org" xlink:title="depth first search">
<polygon fill="#eeeeee" stroke="transparent" points="115,-180 5,-180 5,-144 115,-144 115,-180"/>
<polyline fill="none" stroke="#c9c9c9" points="5,-144 115,-144 "/>
<text text-anchor="middle" x="60" y="-158.3" font-family="Times,serif" font-size="14.00" fill="#111111">depth first search</text>
</a>
</g>
</g>
<!-- /Users/olav/roam/20200603022054&#45;graph.org&#45;&gt;/Users/olav/roam/20200603023024&#45;depth_first_search.org -->
<g id="edge3" class="edge">
<title>/Users/olav/roam/20200603022054&#45;graph.org&#45;&gt;/Users/olav/roam/20200603023024&#45;depth_first_search.org</title>
<path fill="none" stroke="#333333" d="M216,-222.67C189.3,-212.46 147.71,-196.55 114.18,-183.72"/>
<polygon fill="#333333" stroke="#333333" points="115.1,-180.33 104.51,-180.02 112.6,-186.87 115.1,-180.33"/>
</g>
<!-- /Users/olav/roam/20200603024223&#45;breadth_first_search.org -->
<g id="node4" class="node">
<title>/Users/olav/roam/20200603024223&#45;breadth_first_search.org</title>
<g id="a_node4"><a xlink:href="org-protocol://roam-file?file=%2FUsers%2Folav%2Froam%2F20200603024223-breadth_first_search.org" xlink:title="breadth first search">
<polygon fill="#eeeeee" stroke="transparent" points="120,-108 0,-108 0,-72 120,-72 120,-108"/>
<polyline fill="none" stroke="#c9c9c9" points="0,-72 120,-72 "/>
<text text-anchor="middle" x="60" y="-86.3" font-family="Times,serif" font-size="14.00" fill="#111111">breadth first search</text>
</a>
</g>
</g>
<!-- /Users/olav/roam/20200603022054&#45;graph.org&#45;&gt;/Users/olav/roam/20200603024223&#45;breadth_first_search.org -->
<g id="edge5" class="edge">
<title>/Users/olav/roam/20200603022054&#45;graph.org&#45;&gt;/Users/olav/roam/20200603024223&#45;breadth_first_search.org</title>
<path fill="none" stroke="#333333" d="M215.9,-216.97C199.76,-207 179.14,-193.55 162,-180 143.75,-165.57 141.41,-159.43 124,-144 112.9,-134.17 100.39,-123.68 89.4,-114.66"/>
<polygon fill="#333333" stroke="#333333" points="91.3,-111.69 81.34,-108.08 86.87,-117.11 91.3,-111.69"/>
</g>
<!-- /Users/olav/roam/20200603213701&#45;bellman_ford_algorithm.org -->
<g id="node8" class="node">
<title>/Users/olav/roam/20200603213701&#45;bellman_ford_algorithm.org</title>
<g id="a_node8"><a xlink:href="org-protocol://roam-file?file=%2FUsers%2Folav%2Froam%2F20200603213701-bellman_ford_algorithm.org" xlink:title="bellman ford algorithm">
<polygon fill="#eeeeee" stroke="transparent" points="315,-180 171,-180 171,-144 315,-144 315,-180"/>
<polyline fill="none" stroke="#c9c9c9" points="171,-144 315,-144 "/>
<text text-anchor="middle" x="243" y="-158.3" font-family="Times,serif" font-size="14.00" fill="#111111">bellman ford algorithm</text>
</a>
</g>
</g>
<!-- /Users/olav/roam/20200603022054&#45;graph.org&#45;&gt;/Users/olav/roam/20200603213701&#45;bellman_ford_algorithm.org -->
<g id="edge8" class="edge">
<title>/Users/olav/roam/20200603022054&#45;graph.org&#45;&gt;/Users/olav/roam/20200603213701&#45;bellman_ford_algorithm.org</title>
<path fill="none" stroke="#333333" d="M243,-215.7C243,-207.98 243,-198.71 243,-190.11"/>
<polygon fill="#333333" stroke="#333333" points="246.5,-190.1 243,-180.1 239.5,-190.1 246.5,-190.1"/>
</g>
<!-- /Users/olav/roam/20200603222427&#45;dijkstra_s_algorithm.org -->
<g id="node9" class="node">
<title>/Users/olav/roam/20200603222427&#45;dijkstra_s_algorithm.org</title>
<g id="a_node9"><a xlink:href="org-protocol://roam-file?file=%2FUsers%2Folav%2Froam%2F20200603222427-dijkstra_s_algorithm.org" xlink:title="dijkstra&amp;apos;s algorithm">
<polygon fill="#eeeeee" stroke="transparent" points="349,-108 227,-108 227,-72 349,-72 349,-108"/>
<polyline fill="none" stroke="#c9c9c9" points="227,-72 349,-72 "/>
<text text-anchor="middle" x="288" y="-86.3" font-family="Times,serif" font-size="14.00" fill="#111111">dijkstra&#39;s algorithm</text>
</a>
</g>
</g>
<!-- /Users/olav/roam/20200603022054&#45;graph.org&#45;&gt;/Users/olav/roam/20200603222427&#45;dijkstra_s_algorithm.org -->
<g id="edge9" class="edge">
<title>/Users/olav/roam/20200603022054&#45;graph.org&#45;&gt;/Users/olav/roam/20200603222427&#45;dijkstra_s_algorithm.org</title>
<path fill="none" stroke="#333333" d="M270.08,-218.97C291.23,-207.38 318,-191.09 324,-180 335.11,-159.46 323.28,-134.75 310.29,-116.59"/>
<polygon fill="#333333" stroke="#333333" points="312.77,-114.06 303.92,-108.24 307.21,-118.31 312.77,-114.06"/>
</g>
<!-- /Users/olav/roam/20200603014616&#45;org_roam.org -->
<g id="node10" class="node">
<title>/Users/olav/roam/20200603014616&#45;org_roam.org</title>
<g id="a_node10"><a xlink:href="org-protocol://roam-file?file=%2FUsers%2Folav%2Froam%2F20200603014616-org_roam.org" xlink:title="org&#45;roam">
<polygon fill="#eeeeee" stroke="transparent" points="439,-180 371,-180 371,-144 439,-144 439,-180"/>
<polyline fill="none" stroke="#c9c9c9" points="371,-144 439,-144 "/>
<text text-anchor="middle" x="405" y="-158.3" font-family="Times,serif" font-size="14.00" fill="#111111">org&#45;roam</text>
</a>
</g>
</g>
<!-- /Users/olav/roam/20200603022054&#45;graph.org&#45;&gt;/Users/olav/roam/20200603014616&#45;org_roam.org -->
<g id="edge11" class="edge">
<title>/Users/olav/roam/20200603022054&#45;graph.org&#45;&gt;/Users/olav/roam/20200603014616&#45;org_roam.org</title>
<path fill="none" stroke="#333333" d="M270.07,-220.06C273.07,-218.67 276.1,-217.3 279,-216 306.26,-203.84 337.16,-190.83 361.53,-180.74"/>
<polygon fill="#333333" stroke="#333333" points="362.96,-183.94 370.87,-176.89 360.29,-177.47 362.96,-183.94"/>
</g>
<!-- /Users/olav/roam/20200603020003&#45;braindump.org -->
<g id="node2" class="node">
<title>/Users/olav/roam/20200603020003&#45;braindump.org</title>
<g id="a_node2"><a xlink:href="org-protocol://roam-file?file=%2FUsers%2Folav%2Froam%2F20200603020003-braindump.org" xlink:title="braindump">
<polygon fill="#eeeeee" stroke="transparent" points="443,-108 367,-108 367,-72 443,-72 443,-108"/>
<polyline fill="none" stroke="#c9c9c9" points="367,-72 443,-72 "/>
<text text-anchor="middle" x="405" y="-86.3" font-family="Times,serif" font-size="14.00" fill="#111111">braindump</text>
</a>
</g>
</g>
<!-- /Users/olav/roam/20200603023024&#45;depth_first_search.org&#45;&gt;/Users/olav/roam/20200603024223&#45;breadth_first_search.org -->
<g id="edge4" class="edge">
<title>/Users/olav/roam/20200603023024&#45;depth_first_search.org&#45;&gt;/Users/olav/roam/20200603024223&#45;breadth_first_search.org</title>
<path fill="none" stroke="#333333" d="M54.08,-143.7C53.29,-135.98 53.06,-126.71 53.4,-118.11"/>
<polygon fill="#333333" stroke="#333333" points="56.9,-118.32 54.1,-108.1 49.92,-117.84 56.9,-118.32"/>
</g>
<!-- /Users/olav/roam/20200603024223&#45;breadth_first_search.org&#45;&gt;/Users/olav/roam/20200603023024&#45;depth_first_search.org -->
<g id="edge2" class="edge">
<title>/Users/olav/roam/20200603024223&#45;breadth_first_search.org&#45;&gt;/Users/olav/roam/20200603023024&#45;depth_first_search.org</title>
<path fill="none" stroke="#333333" d="M65.9,-108.1C66.7,-115.79 66.94,-125.05 66.6,-133.67"/>
<polygon fill="#333333" stroke="#333333" points="63.11,-133.48 65.92,-143.7 70.09,-133.96 63.11,-133.48"/>
</g>
<!-- /Users/olav/roam/20200603232115&#45;cpp.org -->
<g id="node5" class="node">
<title>/Users/olav/roam/20200603232115&#45;cpp.org</title>
<g id="a_node5"><a xlink:href="org-protocol://roam-file?file=%2FUsers%2Folav%2Froam%2F20200603232115-cpp.org" xlink:title="cpp">
<polygon fill="#eeeeee" stroke="transparent" points="515,-108 461,-108 461,-72 515,-72 515,-108"/>
<polyline fill="none" stroke="#c9c9c9" points="461,-72 515,-72 "/>
<text text-anchor="middle" x="488" y="-86.3" font-family="Times,serif" font-size="14.00" fill="#111111">cpp</text>
</a>
</g>
</g>
<!-- /Users/olav/roam/20200603230401&#45;priority_queue.org -->
<g id="node6" class="node">
<title>/Users/olav/roam/20200603230401&#45;priority_queue.org</title>
<g id="a_node6"><a xlink:href="org-protocol://roam-file?file=%2FUsers%2Folav%2Froam%2F20200603230401-priority_queue.org" xlink:title="priority queue">
<polygon fill="#eeeeee" stroke="transparent" points="434.5,-36 341.5,-36 341.5,0 434.5,0 434.5,-36"/>
<polyline fill="none" stroke="#c9c9c9" points="341.5,0 434.5,0 "/>
<text text-anchor="middle" x="388" y="-14.3" font-family="Times,serif" font-size="14.00" fill="#111111">priority queue</text>
</a>
</g>
</g>
<!-- /Users/olav/roam/20200603232115&#45;cpp.org&#45;&gt;/Users/olav/roam/20200603230401&#45;priority_queue.org -->
<g id="edge6" class="edge">
<title>/Users/olav/roam/20200603232115&#45;cpp.org&#45;&gt;/Users/olav/roam/20200603230401&#45;priority_queue.org</title>
<path fill="none" stroke="#333333" d="M463.54,-71.88C450.7,-62.89 434.8,-51.76 420.91,-42.03"/>
<polygon fill="#333333" stroke="#333333" points="422.76,-39.06 412.56,-36.19 418.74,-44.79 422.76,-39.06"/>
</g>
<!-- /Users/olav/roam/20200604185653&#45;react.org -->
<g id="node7" class="node">
<title>/Users/olav/roam/20200604185653&#45;react.org</title>
<g id="a_node7"><a xlink:href="org-protocol://roam-file?file=%2FUsers%2Folav%2Froam%2F20200604185653-react.org" xlink:title="react">
<polygon fill="#eeeeee" stroke="transparent" points="342,-252 288,-252 288,-216 342,-216 342,-252"/>
<polyline fill="none" stroke="#c9c9c9" points="288,-216 342,-216 "/>
<text text-anchor="middle" x="315" y="-230.3" font-family="Times,serif" font-size="14.00" fill="#111111">react</text>
</a>
</g>
</g>
<!-- /Users/olav/roam/20200603213701&#45;bellman_ford_algorithm.org&#45;&gt;/Users/olav/roam/20200603222427&#45;dijkstra_s_algorithm.org -->
<g id="edge10" class="edge">
<title>/Users/olav/roam/20200603213701&#45;bellman_ford_algorithm.org&#45;&gt;/Users/olav/roam/20200603222427&#45;dijkstra_s_algorithm.org</title>
<path fill="none" stroke="#333333" d="M254.12,-143.7C259.36,-135.56 265.7,-125.69 271.48,-116.7"/>
<polygon fill="#333333" stroke="#333333" points="274.54,-118.41 277,-108.1 268.65,-114.62 274.54,-118.41"/>
</g>
<!-- /Users/olav/roam/20200603222427&#45;dijkstra_s_algorithm.org&#45;&gt;/Users/olav/roam/20200603230401&#45;priority_queue.org -->
<g id="edge7" class="edge">
<title>/Users/olav/roam/20200603222427&#45;dijkstra_s_algorithm.org&#45;&gt;/Users/olav/roam/20200603230401&#45;priority_queue.org</title>
<path fill="none" stroke="#333333" d="M312.46,-71.88C325.3,-62.89 341.2,-51.76 355.09,-42.03"/>
<polygon fill="#333333" stroke="#333333" points="357.26,-44.79 363.44,-36.19 353.24,-39.06 357.26,-44.79"/>
</g>
<!-- /Users/olav/roam/20200603014616&#45;org_roam.org&#45;&gt;/Users/olav/roam/20200603020003&#45;braindump.org -->
<g id="edge1" class="edge">
<title>/Users/olav/roam/20200603014616&#45;org_roam.org&#45;&gt;/Users/olav/roam/20200603020003&#45;braindump.org</title>
<path fill="none" stroke="#333333" d="M405,-143.7C405,-135.98 405,-126.71 405,-118.11"/>
<polygon fill="#333333" stroke="#333333" points="408.5,-118.1 405,-108.1 401.5,-118.1 408.5,-118.1"/>
</g>
</g>
</svg>
